<?xml version="1.0" standalone="no"?>
<!DOCTYPE svg PUBLIC "-//W3C//DTD SVG 20010904//EN"
 "http://www.w3.org/TR/2001/REC-SVG-20010904/DTD/svg10.dtd">
<svg version="1.0" xmlns="http://www.w3.org/2000/svg"
 width="32.000000pt" height="32.000000pt" viewBox="0 0 32.000000 32.000000"
 preserveAspectRatio="xMidYMid meet">

<g transform="translate(0.000000,32.000000) scale(0.100000,-0.100000)"
fill="#000000" stroke="none">
<path d="M19 297 c-16 -18 -18 -35 -16 -145 2 -105 5 -126 20 -137 23 -17 273
-19 284 -2 4 6 8 68 10 137 4 170 6 167 -157 167 -109 0 -124 -2 -141 -20z
m69 -4 c-2 -10 -13 -19 -26 -21 -12 -2 -22 -10 -22 -18 0 -8 -7 -14 -15 -14
-20 0 -19 29 3 51 23 24 65 25 60 2z m202 0 c23 -20 27 -53 5 -53 -8 0 -15 6
-15 14 0 8 -10 16 -22 18 -30 4 -37 38 -9 38 11 0 30 -8 41 -17z m-163 -75
c-3 -8 -6 -5 -6 6 -1 11 2 17 5 13 3 -3 4 -12 1 -19z m30 0 c-3 -8 -6 -5 -6 6
-1 11 2 17 5 13 3 -3 4 -12 1 -19z m-47 -3 c0 -8 4 -15 9 -15 5 0 17 -7 25
-16 15 -14 17 -14 32 0 8 9 20 16 25 16 5 0 9 7 9 15 0 22 18 18 25 -6 4 -12
12 -18 21 -15 18 7 18 1 -2 -18 -8 -9 -11 -16 -5 -16 6 0 11 -8 12 -17 0 -11
3 -13 6 -5 7 17 43 36 43 22 0 -5 -6 -10 -14 -10 -8 0 -16 -7 -20 -15 -3 -8
-12 -12 -19 -9 -18 7 -29 -20 -21 -52 7 -27 24 -33 24 -8 0 17 40 58 48 50 2
-3 1 -27 -3 -55 l-7 -49 -128 0 c-70 0 -133 3 -139 7 -6 4 -14 28 -17 54 -6
41 -5 47 10 41 9 -3 16 -10 16 -15 0 -5 10 -10 23 -10 16 -1 18 -2 5 -6 -20
-5 -23 -18 -7 -28 15 -10 20 -1 24 40 3 33 1 36 -16 32 -12 -3 -22 0 -26 9 -3
8 -11 14 -19 14 -8 0 -14 5 -14 10 0 14 36 -5 43 -22 3 -8 6 -6 6 5 1 9 6 17
12 17 6 0 3 7 -5 16 -20 19 -20 25 -2 18 9 -3 17 3 21 15 7 24 25 28 25 6z
m80 5 c0 -5 -4 -10 -10 -10 -5 0 -10 5 -10 10 0 6 5 10 10 10 6 0 10 -4 10
-10z"/>
<path d="M128 83 c7 -3 16 -2 19 1 4 3 -2 6 -13 5 -11 0 -14 -3 -6 -6z"/>
<path d="M178 83 c7 -3 16 -2 19 1 4 3 -2 6 -13 5 -11 0 -14 -3 -6 -6z"/>
</g>
</svg>
